<svg id="Layer_3" enable-background="new 0 0 64 64" height="512" viewBox="0 0 64 64" width="512" xmlns="http://www.w3.org/2000/svg"><path d="m44.66 61.5.34.5h-26l.34-.5c1.08-1.63 1.66-3.54 1.66-5.5h22c0 1.96.58 3.87 1.66 5.5z" fill="#969faa"/><path d="m62 50v2c0 2.21-1.79 4-4 4h-15-22-15c-2.21 0-4-1.79-4-4v-2h20 24.5 5z" fill="#aab2bd"/><path d="m6 16h52c2.209 0 4 1.791 4 4v30h-60v-30c0-2.209 1.791-4 4-4z" fill="#69d6f4"/><path d="m22 34c-1.34 0-2.64-.16-3.89-.47-.037-.009-.073-.023-.11-.032v4.502h8v-4.524c-1.281.33-2.616.524-4 .524z" fill="#fcd770"/><path d="m37.88 16.02c.08.65.12 1.31.12 1.98 0 8.84-7.16 16-16 16-1.34 0-2.64-.16-3.89-.47-6.96-1.74-12.11-8.03-12.11-15.53 0-.67.04-1.33.12-1.98.97-7.9 7.71-14.02 15.88-14.02s14.91 6.12 15.88 14.02z" fill="#e6e9ed"/><path d="m26 38v8c0 2.21-1.79 4-4 4-1.1 0-2.1-.45-2.83-1.17-.72-.73-1.17-1.73-1.17-2.83v-8z" fill="#838f9b"/><circle cx="22" cy="18" fill="#69d6f4" r="12"/><path d="m44 32v-4h5v19.5c0 1.38-1.12 2.5-2.5 2.5-.69 0-1.32-.28-1.77-.73s-.73-1.08-.73-1.77v-9.5z" fill="#cf9e76"/><path d="m54 32v15.5c0 .69-.28 1.32-.73 1.77s-1.08.73-1.77.73c-1.38 0-2.5-1.12-2.5-2.5v-19.5h5z" fill="#cf9e76"/><path d="m54 28h-5-5v4c-2.22-.05-4-1.86-4-4.09v-6.91c0-1.75.5-3.38 1.37-4.76.36-.58.79-1.12 1.27-1.6 1.62-1.63 3.88-2.64 6.36-2.64 3.12 0 5.88 1.59 7.49 4.01.95 1.43 1.51 3.14 1.51 4.99v6.91c0 2.23-1.78 4.04-4 4.09z" fill="#fcd770"/><circle cx="49" cy="7" fill="#f0d0b4" r="5"/><path d="m19.832 62.555-1.664-1.109.336-.504c.978-1.469 1.496-3.178 1.496-4.942h2c0 2.16-.633 4.253-1.832 6.051z"/><path d="m44.168 62.555-.336-.504c-1.199-1.798-1.832-3.891-1.832-6.051h2c0 1.764.518 3.473 1.496 4.941l.336.504z"/><path d="m15 61h34v2h-34z"/><path d="m58 57h-52c-2.757 0-5-2.243-5-5v-32c0-2.757 2.243-5 5-5v2c-1.654 0-3 1.346-3 3v32c0 1.654 1.346 3 3 3h52c1.654 0 3-1.346 3-3v-32c0-1.654-1.346-3-3-3h-1.494v-2h1.494c2.757 0 5 2.243 5 5v32c0 2.757-2.243 5-5 5z"/><path d="m2 49h60v2h-60z"/><path d="m22 31c-7.168 0-13-5.832-13-13s5.832-13 13-13 13 5.832 13 13-5.832 13-13 13zm0-24c-6.065 0-11 4.935-11 11s4.935 11 11 11 11-4.935 11-11-4.935-11-11-11z"/><path d="m22 13c-6.461 0-8.738-3.305-8.832-3.445l1.658-1.119c.073.104 1.86 2.564 7.174 2.564s7.101-2.46 7.174-2.564l1.658 1.119c-.094.14-2.371 3.445-8.832 3.445z"/><path d="m10 17h24v2h-24z"/><path d="m22.64 30.769-1.281-1.536c.056-.047 5.641-4.8 5.641-11.233s-5.585-11.186-5.641-11.232l1.281-1.536c.26.216 6.36 5.384 6.36 12.768s-6.1 12.552-6.36 12.769z"/><path d="m29.174 27.564c-.073-.104-1.86-2.564-7.174-2.564s-7.101 2.46-7.174 2.564l-1.658-1.119c.094-.14 2.371-3.445 8.832-3.445s8.738 3.305 8.832 3.445z"/><path d="m21.36 30.769c-.26-.217-6.36-5.385-6.36-12.769s6.1-12.552 6.36-12.769l1.281 1.536c-.056.047-5.641 4.8-5.641 11.233s5.585 11.186 5.641 11.232z"/><path d="m21 6h2v24h-2z"/><path d="m22 35c-9.374 0-17-7.626-17-17s7.626-17 17-17 17 7.626 17 17-7.626 17-17 17zm0-32c-8.271 0-15 6.729-15 15s6.729 15 15 15 15-6.729 15-15-6.729-15-15-15z"/><path d="m22 51c-2.757 0-5-2.243-5-5v-12h2v12c0 1.654 1.346 3 3 3s3-1.346 3-3v-12h2v12c0 2.757-2.243 5-5 5z"/><path d="m15 37h14v2h-14z"/><path d="m52.696 11.717c1.4-1.1 2.304-2.803 2.304-4.717 0-3.309-2.691-6-6-6s-6 2.691-6 6c0 1.914.904 3.617 2.304 4.717-3.688 1.474-6.304 5.076-6.304 9.283v6.909c0 2.432 1.717 4.465 4 4.967v14.624c0 1.93 1.57 3.5 3.5 3.5.98 0 1.864-.407 2.5-1.058.636.651 1.52 1.058 2.5 1.058 1.93 0 3.5-1.57 3.5-3.5v-14.624c2.283-.502 4-2.535 4-4.967v-6.909c0-4.207-2.616-7.809-6.304-9.283zm-7.696-4.717c0-2.206 1.794-4 4-4s4 1.794 4 4-1.794 4-4 4-4-1.794-4-4zm1.5 42c-.827 0-1.5-.673-1.5-1.5v-18.5h3v18.5c0 .827-.673 1.5-1.5 1.5zm5 0c-.827 0-1.5-.673-1.5-1.5v-18.5h3v18.5c0 .827-.673 1.5-1.5 1.5zm5.5-21.091c0 1.319-.835 2.439-2 2.882v-11.791h-2v8h-8v-8h-2v11.791c-1.165-.443-2-1.563-2-2.882v-6.909c0-4.411 3.589-8 8-8s8 3.589 8 8z"/><path d="m38 15h3v2h-3z"/><path d="m39 37h2v2h-2z"/><path d="m35 37h2v2h-2z"/><path d="m31 37h2v2h-2z"/></svg>