<svg id="Layer_3" enable-background="new 0 0 64 64" height="512" viewBox="0 0 64 64" width="512" xmlns="http://www.w3.org/2000/svg" xmlns:xlink="http://www.w3.org/1999/xlink"><linearGradient id="SVGID_1_" gradientUnits="userSpaceOnUse" x1="32" x2="32" y1="63" y2="1"><stop offset="0" stop-color="#9f2fff"/><stop offset="1" stop-color="#0bb1d3"/></linearGradient><path d="m58 15h-1.019c-1.095-1.453-2.571-2.599-4.284-3.283 1.399-1.1 2.303-2.803 2.303-4.717 0-3.309-2.691-6-6-6s-6 2.691-6 6c0 1.914.904 3.617 2.304 4.717-1.724.689-3.207 1.844-4.304 3.309v-.026h-2.281c-1.423-7.946-8.37-14-16.719-14-8.374 0-15.337 6.092-16.73 14.074-2.409.357-4.27 2.419-4.27 4.926v32c0 2.757 2.243 5 5 5h13.927c-.158 1.405-.631 2.753-1.423 3.941l-.039.059h-3.465v2h34v-2h-3.465l-.039-.059c-.792-1.188-1.264-2.537-1.423-3.941h13.927c2.757 0 5-2.243 5-5v-32c0-2.757-2.243-5-5-5zm3 5v29h-6.351c.218-.456.351-.961.351-1.5v-14.624c2.283-.502 4-2.535 4-4.967v-6.909c0-1.416-.3-2.761-.833-3.983 1.575.089 2.833 1.386 2.833 2.983zm-16-13c0-2.206 1.794-4 4-4s4 1.794 4 4-1.794 4-4 4-4-1.794-4-4zm4 6c4.411 0 8 3.589 8 8v6.909c0 1.319-.835 2.439-2 2.882v-11.791h-2v28.5c0 .827-.673 1.5-1.5 1.5s-1.5-.673-1.5-1.5v-21.5h-2v21.5c0 .827-.673 1.5-1.5 1.5s-1.5-.673-1.5-1.5v-28.5h-2v11.791c-1.165-.443-2-1.563-2-2.882v-6.909c0-4.411 3.589-8 8-8zm-9.159 4c-.538 1.226-.841 2.578-.841 4v6.909c0 2.432 1.717 4.465 4 4.967v14.624c0 .539.133 1.044.351 1.5h-17.377c.635-.838 1.026-1.87 1.026-3v-7h2v-2h-2v-2.753c6.941-2.14 12-8.613 12-16.247 0-.338-.031-.667-.051-1zm-20.841 29v-7h6v7c0 1.654-1.346 3-3 3s-3-1.346-3-3zm3-11c1.025 0 2.024-.107 3-.281v2.281h-6v-2.281c.976.174 1.975.281 3 .281zm0-32c8.271 0 15 6.729 15 15s-6.729 15-15 15-15-6.729-15-15 6.729-15 15-15zm-16.958 14.171c-.013.277-.042.549-.042.829 0 7.634 5.059 14.107 12 16.247v2.753h-2v2h2v7c0 1.13.391 2.162 1.026 3h-15.026v-29c0-1.317.859-2.427 2.042-2.829zm38.179 43.829h-22.442c.645-1.247 1.042-2.6 1.17-4h20.102c.128 1.4.525 2.753 1.17 4zm14.779-6h-52c-1.654 0-3-1.346-3-3v-1h58v1c0 1.654-1.346 3-3 3zm-36-24c7.168 0 13-5.832 13-13s-5.832-13-13-13-13 5.832-13 13 5.832 13 13 13zm-6.95-12c.139 1.861.642 3.565 1.319 5.063-1.079.473-1.845 1.022-2.359 1.475-1.646-1.743-2.731-4.016-2.96-6.538zm5.95 8.548c-.535-.622-1.136-1.393-1.71-2.302.517-.1 1.084-.175 1.71-.214zm-1.707 1.101c-1.381-.351-2.655-.961-3.773-1.78.394-.32.973-.699 1.776-1.034.655 1.105 1.358 2.055 1.997 2.814zm3.707-1.101v-2.516c.626.039 1.193.114 1.71.214-.574.909-1.175 1.68-1.71 2.302zm3.703-1.713c.804.335 1.382.714 1.776 1.034-1.118.819-2.392 1.429-3.773 1.78.64-.759 1.343-1.709 1.997-2.814zm-3.703-2.803v-4.032h3.947c-.144 1.615-.615 3.11-1.236 4.427-.795-.195-1.692-.338-2.711-.395zm0-6.032v-4.032c1.019-.057 1.916-.2 2.711-.395.621 1.317 1.092 2.812 1.236 4.427zm0-6.032v-2.516c.535.622 1.136 1.393 1.71 2.302-.517.1-1.084.175-1.71.214zm1.707-3.617c1.381.351 2.655.961 3.773 1.78-.394.32-.973.699-1.776 1.034-.655-1.105-1.358-2.055-1.997-2.814zm-3.707 1.101v2.516c-.626-.039-1.193-.114-1.71-.214.574-.909 1.175-1.68 1.71-2.302zm-3.703 1.713c-.804-.335-1.382-.714-1.776-1.034 1.118-.819 2.392-1.429 3.773-1.78-.64.759-1.343 1.709-1.997 2.814zm3.703 2.803v4.032h-3.947c.144-1.615.615-3.11 1.236-4.427.795.195 1.692.338 2.711.395zm0 6.032v4.032c-1.019.057-1.916.2-2.711.395-.621-1.317-1.092-2.812-1.236-4.427zm8.989 6.538c-.514-.453-1.28-1.002-2.359-1.475.677-1.498 1.18-3.203 1.319-5.063h4c-.228 2.522-1.314 4.795-2.96 6.538zm2.96-8.538h-4c-.139-1.861-.642-3.565-1.319-5.063 1.079-.473 1.845-1.022 2.359-1.475 1.646 1.743 2.732 4.016 2.96 6.538zm-18.938-6.538c.514.453 1.28 1.002 2.359 1.475-.677 1.498-1.18 3.203-1.319 5.063h-4c.228-2.522 1.314-4.795 2.96-6.538zm24.989 26.538h2v2h-2zm-4 0h2v2h-2zm-4 0h2v2h-2z" fill="url(#SVGID_1_)"/></svg>